<svg width="162" height="158" viewBox="0 0 162 158" fill="none" xmlns="http://www.w3.org/2000/svg">
<path fill-rule="evenodd" clip-rule="evenodd" d="M80.5173 -3.51983e-05C36.0547 -3.51983e-05 0 36.0466 0 80.5173C0 116.091 23.0707 146.272 55.0627 156.919C59.0867 157.664 60.564 155.172 60.564 153.045C60.564 151.127 60.4893 144.783 60.4547 138.055C38.0547 142.925 33.328 128.555 33.328 128.555C29.6653 119.249 24.388 116.773 24.388 116.773C17.0827 111.776 24.9387 111.879 24.9387 111.879C33.024 112.447 37.2813 120.177 37.2813 120.177C44.4627 132.485 56.1173 128.927 60.712 126.869C61.436 121.667 63.5213 118.113 65.824 116.103C47.94 114.068 29.14 107.163 29.14 76.3106C29.14 67.5213 32.2853 60.3386 37.436 54.7C36.6 52.6706 33.844 44.4813 38.2173 33.3906C38.2173 33.3906 44.9787 31.228 60.364 41.6453C66.7867 39.8613 73.6747 38.9666 80.5173 38.9346C87.36 38.9666 94.2533 39.8613 100.688 41.6453C116.056 31.228 122.808 33.3906 122.808 33.3906C127.191 44.4813 124.435 52.6706 123.599 54.7C128.761 60.3386 131.884 67.5213 131.884 76.3106C131.884 107.237 113.048 114.045 95.1187 116.039C98.0067 118.537 100.58 123.437 100.58 130.949C100.58 141.723 100.488 150.393 100.488 153.045C100.488 155.189 101.936 157.7 106.017 156.909C137.993 146.251 161.035 116.08 161.035 80.5173C161.035 36.0466 124.985 -3.51983e-05 80.5173 -3.51983e-05Z" fill="white"/>
</svg>
