<svg width="467" height="467" viewBox="0 0 467 467" fill="none" xmlns="http://www.w3.org/2000/svg">
<g clip-path="url(#clip0_21_61)">
<path d="M360.615 154.727C365.156 154.028 369.637 153.68 374.064 153.68C378.607 153.68 383.147 154.028 387.69 154.727L385.943 240.142C381.863 240.839 377.965 241.189 374.239 241.189C370.279 241.189 366.318 240.839 362.361 240.142L360.615 154.727ZM361.314 280.316C360.615 276.009 360.264 271.757 360.264 267.564C360.264 263.373 360.615 259.066 361.314 254.639C365.621 253.94 369.872 253.591 374.064 253.591C378.256 253.591 382.564 253.94 386.989 254.639C387.69 259.066 388.037 263.316 388.037 267.389C388.037 271.7 387.69 276.009 386.989 280.316C382.564 281.015 378.314 281.364 374.239 281.364C369.928 281.364 365.621 281.015 361.314 280.316V280.316ZM258.782 190.011C262.974 189.312 267.107 188.963 271.184 188.963C275.258 188.963 279.393 189.312 283.586 190.011V237.87C283.586 242.646 283.963 246.577 284.721 249.661C285.476 252.747 286.642 255.193 288.214 256.997C289.786 258.803 291.735 260.084 294.066 260.839C296.394 261.599 299.131 261.975 302.274 261.975C306.583 261.975 310.193 261.569 313.104 260.752V190.011C317.297 189.312 321.371 188.963 325.331 188.963C329.407 188.963 333.541 189.312 337.733 190.011V276.823C334.005 278.106 329.088 279.356 322.973 280.577C316.862 281.801 310.485 282.411 303.848 282.411C297.909 282.411 292.202 281.946 286.729 281.015C281.256 280.082 276.452 278.106 272.319 275.076C268.185 272.049 264.897 267.624 262.45 261.799C260.004 255.979 258.782 248.236 258.782 238.569V190.011ZM197.475 241.015C190.952 239.153 185.859 236.385 182.191 232.719C178.522 229.049 176.69 223.547 176.69 216.211C176.69 207.363 179.861 200.434 186.209 195.426C192.554 190.42 201.201 187.914 212.146 187.914C216.688 187.914 221.17 188.325 225.597 189.137C230.02 189.953 234.505 191.177 239.045 192.805C238.812 195.834 238.231 198.979 237.3 202.238C236.368 205.499 235.261 208.351 233.98 210.797C231.184 209.634 228.099 208.613 224.724 207.74C221.344 206.866 217.794 206.429 214.067 206.429C210.108 206.429 207.022 207.041 204.81 208.264C202.596 209.486 201.492 211.438 201.492 214.116C201.492 216.678 202.277 218.482 203.849 219.53C205.423 220.577 207.661 221.569 210.574 222.5L220.532 225.468C223.79 226.402 226.732 227.537 229.352 228.876C231.972 230.215 234.213 231.874 236.077 233.853C237.939 235.836 239.396 238.28 240.445 241.189C241.491 244.102 242.015 247.651 242.015 251.845C242.015 256.153 241.113 260.171 239.307 263.896C237.501 267.624 234.881 270.856 231.447 273.59C228.012 276.328 223.851 278.482 218.96 280.054C214.067 281.627 208.538 282.411 202.366 282.411C199.571 282.411 197.008 282.324 194.679 282.148C192.348 281.975 190.108 281.683 187.954 281.276C185.798 280.867 183.676 280.374 181.578 279.791C179.484 279.211 177.213 278.454 174.767 277.522C174.999 274.376 175.552 271.205 176.427 268.001C177.3 264.801 178.435 261.686 179.833 258.657C183.676 260.171 187.313 261.306 190.75 262.063C194.184 262.821 197.764 263.199 201.492 263.199C203.122 263.199 204.898 263.053 206.819 262.76C208.742 262.472 210.515 261.947 212.146 261.189C213.776 260.433 215.144 259.443 216.251 258.219C217.358 256.997 217.91 255.398 217.91 253.415C217.91 250.623 217.065 248.613 215.378 247.389C213.689 246.167 211.332 245.092 208.303 244.158L197.475 241.015ZM116.953 263.546C123.474 263.546 128.159 261.132 131.014 256.298C133.866 251.468 135.293 244.508 135.293 235.425C135.293 226.342 133.866 219.385 131.014 214.551C128.159 209.721 123.474 207.302 116.953 207.302C110.547 207.302 105.919 209.721 103.067 214.551C100.212 219.385 98.7881 226.342 98.7881 235.425C98.7881 244.508 100.212 251.468 103.067 256.298C105.919 261.132 110.547 263.546 116.953 263.546ZM116.953 282.411C109.616 282.411 103.242 281.216 97.8277 278.831C92.412 276.445 87.9273 273.127 84.3781 268.874C80.8242 264.626 78.1452 259.647 76.3425 253.94C74.5368 248.236 73.6355 242.062 73.6355 235.425C73.6355 228.787 74.5368 222.559 76.3425 216.735C78.1452 210.914 80.8242 205.878 84.3781 201.626C87.9273 197.377 92.412 194.028 97.8277 191.583C103.242 189.137 109.616 187.914 116.953 187.914C124.289 187.914 130.692 189.137 136.167 191.583C141.64 194.028 146.181 197.377 149.791 201.626C153.401 205.878 156.078 210.914 157.826 216.735C159.573 222.559 160.446 228.787 160.446 235.425C160.446 242.062 159.573 248.236 157.826 253.94C156.078 259.647 153.401 264.626 149.791 268.874C146.181 273.127 141.64 276.445 136.167 278.831C130.692 281.216 124.289 282.411 116.953 282.411" fill="white"/>
<path d="M233.5 443.65C117.436 443.65 23.35 349.562 23.35 233.502C23.35 117.437 117.436 23.35 233.5 23.35C349.563 23.35 443.65 117.437 443.65 233.502C443.65 349.562 349.563 443.65 233.5 443.65ZM233.5 1.62125e-05C104.541 1.62125e-05 0 104.541 0 233.502C0 362.457 104.541 467 233.5 467C362.46 467 467 362.457 467 233.502C467 104.541 362.46 1.62125e-05 233.5 1.62125e-05Z" fill="white"/>
</g>
<defs>
<clipPath id="clip0_21_61">
<rect width="466.667" height="466.667" fill="white"/>
</clipPath>
</defs>
</svg>
